<?xml version="1.0" encoding="utf-8"?>
<!-- Generator: Adobe Illustrator 21.0.0, SVG Export Plug-In . SVG Version: 6.00 Build 0)  -->
<svg version="1.1" xmlns="http://www.w3.org/2000/svg" xmlns:xlink="http://www.w3.org/1999/xlink" x="0px" y="0px"
	 viewBox="0 0 800 147" style="enable-background:new 0 0 800 147;" xml:space="preserve">
<style type="text/css">
	.st0{fill:#FFFFFF;}
	.st1{fill:none;stroke:#FFFFFF;stroke-width:10;stroke-miterlimit:10;}
	.st2{fill:#738E8D;}
	.st3{fill:#3C948B;}
	.st4{fill:#FF7F45;}
	.st5{fill:#E97E0B;}
	.st6{fill:none;stroke:#FFFFFF;stroke-width:7;stroke-miterlimit:10;}
	.st7{fill:none;stroke:#738E8D;stroke-width:7;stroke-miterlimit:10;}
	.st8{fill:none;stroke:#3C948B;stroke-width:7;stroke-miterlimit:10;}
	.st9{fill:none;stroke:#E97E0B;stroke-width:7;stroke-miterlimit:10;}
	.st10{fill:#363636;}
</style>
<g id="Layer_1">
	<g>
		<path class="st4" d="M21.6,47.6c12.3-2,16.7-11.4,20-21.9h11.6V46h26.5l-4.4,15.5H53.1v45.8c0,10.9,4.1,14.1,11.6,14.1
			c5.2,0,9.6-1.8,12.5-3.4l4.1,14.6c-5,3.2-13.4,5.7-21.9,5.7c-26.4,0-27.4-15.7-27.4-30.1V61.5H19.6L21.6,47.6z"/>
		<path class="st4" d="M160.2,68.8c0,25.5-21.6,31.7-51.8,30.6c0.9,11.9,6.8,22.3,22.3,22.3c10.3,0,18-4.3,22.4-7.3l6.2,14.8
			c-2.9,2.1-14.6,9.1-31,9.1c-30.1,0-41.3-19.6-41.3-44.9c0-27.6,15.5-49.7,44-49.7C149,43.7,160.2,52,160.2,68.8z M130.1,59.3
			c-14.3,0-20.5,13.4-21.7,24.9c2.5,0.2,4.8,0.2,7.1,0.2c15.5,0,25.7-3.9,25.7-14.6C141.1,62.4,136.7,59.3,130.1,59.3z"/>
		<path class="st4" d="M251.2,117.6c0,3.6,0.9,4.8,3.9,5l5.2,0.4v12.8h-26.4l-0.5-9.4l-0.5-0.2c-4.5,6.4-12.3,11.9-24.6,11.9
			c-26,0-35.6-18.4-35.6-43.3c0-31.4,15.5-51.1,47-51.1c5.9,0,18.9,1.2,31.5,6.1V117.6z M230.4,62c-2.7-1.1-8-2.3-13.4-2.3
			c-17.6,0-22.8,16.2-22.8,34.4c0,14.1,3.6,28,18.4,28c11.4,0,17.8-7.8,17.8-16.2V62z"/>
		<path class="st4" d="M294,90.5c0,18,6.4,30.5,22.3,30.5c6.9,0,13.9-2.5,21-8l8,14.3c-6.8,5.7-18,11-31.5,11
			c-26.2,0-41.5-16-41.5-46.9c0-35.8,22.3-47.7,42.9-47.7c10.9,0,20.5,2.5,27.6,6.9v25.3l-16.6,1.2V66.6c0-3-0.4-4.5-3-5.3
			c-2-0.5-4.8-0.9-6.9-0.9C302.5,60.4,294,69.7,294,90.5z"/>
		<path class="st4" d="M364.9,27.8c0-3.9-1.1-5-4.5-5.2l-5.7-0.5V8.7h30.8v49.7c6.2-11.6,16.9-14.8,26-14.8c20.7,0,28,12.3,28,30.5
			v47.7l9.1,0.5v13.4h-39.6v-12.6l5.5-0.5c3-0.4,3.7-2.1,3.7-5.9V78.8c0-10.7-2.3-17.6-14.3-17.6c-10.9,0-18.4,8.7-18.4,19.4v41.3
			l8.7,0.4v13.5h-39.4v-12.8l5.2-0.5c3.4-0.4,4.6-1.4,4.6-5.9V27.8z"/>
		<path class="st4" d="M538.1,117.6c0,3.6,0.9,4.8,3.9,5l5.2,0.4v12.8h-26.4l-0.5-9.4l-0.5-0.2c-4.5,6.4-12.3,11.9-24.6,11.9
			c-26,0-35.6-18.4-35.6-43.3c0-31.4,15.5-51.1,47-51.1c5.9,0,18.9,1.2,31.5,6.1V117.6z M517.2,62c-2.7-1.1-8-2.3-13.4-2.3
			c-17.6,0-22.8,16.2-22.8,34.4c0,14.1,3.6,28,18.4,28c11.4,0,17.8-7.8,17.8-16.2V62z"/>
		<path class="st4" d="M586.4,52.7c5.5-5.7,13.7-9.1,22.8-9.1c21.6,0,34.6,15.1,34.6,42.6c0,35.1-16,52-42.8,52
			c-12.6,0-28.1-3.6-35.6-7.7V27.8c0-3.7-1.2-5-4.5-5.2l-5.5-0.5V8.7h31V52.7z M586.4,118.5c3.6,2,9.4,3.6,15.3,3.6
			c12.1,0,20.5-8.9,20.5-32.6c0-14.6-3.6-29.6-19.8-29.6c-9.3,0-16,5.7-16,13.7V118.5z"/>
		<path class="st4" d="M686.9,121.7l9.4,0.7v13.4h-40.1v-12.8l5.5-0.5c3.4-0.5,4.3-1.4,4.3-5.9V27.8c0-3.9-1.1-5-4.5-5.2l-5.7-0.5
			V8.7h31V121.7z"/>
		<path class="st4" d="M780.4,68.8c0,25.5-21.6,31.7-51.8,30.6c0.9,11.9,6.8,22.3,22.3,22.3c10.3,0,18-4.3,22.4-7.3l6.2,14.8
			c-2.9,2.1-14.6,9.1-31,9.1c-30.1,0-41.3-19.6-41.3-44.9c0-27.6,15.5-49.7,44-49.7C769.2,43.7,780.4,52,780.4,68.8z M750.3,59.3
			c-14.3,0-20.5,13.4-21.7,24.9c2.5,0.2,4.8,0.2,7.1,0.2c15.5,0,25.7-3.9,25.7-14.6C761.3,62.4,756.9,59.3,750.3,59.3z"/>
	</g>
</g>
<g id="Layer_2">
</g>
<g id="Layer_3">
</g>
</svg>
